<svg width="21.45" height="21.45" viewBox="0 0 160 144" fill="none" xmlns="http://www.w3.org/2000/svg">
<g clip-path="url(#clip0_1_27)">
<path d="M201.211 37.1031V67.2875H193.859V54.8611H182.421V67.2875H175.069V37.1031H182.421V48.9275H193.859V37.1031H201.211ZM231.028 43.2948L215.979 78.6819H208.067L213.571 66.4705L203.81 43.2948H212.023L217.57 58.301L223.073 43.2948H231.028ZM241.039 46.6916C241.756 45.5736 242.745 44.6707 244.006 43.9827C245.267 43.2948 246.744 42.9508 248.435 42.9508C250.413 42.9508 252.204 43.4524 253.81 44.4557C255.415 45.459 256.676 46.8922 257.593 48.7555C258.539 50.6187 259.012 52.7829 259.012 55.2481C259.012 57.7133 258.539 59.8919 257.593 61.7838C256.676 63.647 255.415 65.0946 253.81 66.1265C252.204 67.1298 250.413 67.6315 248.435 67.6315C246.772 67.6315 245.296 67.2875 244.006 66.5995C242.745 65.9115 241.756 65.0229 241.039 63.9337V78.7249H233.687V43.2948H241.039V46.6916ZM251.531 55.2481C251.531 53.4135 251.015 51.9803 249.983 50.9483C248.98 49.8877 247.733 49.3574 246.242 49.3574C244.78 49.3574 243.533 49.8877 242.501 50.9483C241.498 52.009 240.996 53.4565 240.996 55.2911C240.996 57.1257 241.498 58.5733 242.501 59.6339C243.533 60.6945 244.78 61.2248 246.242 61.2248C247.704 61.2248 248.951 60.6945 249.983 59.6339C251.015 58.5446 251.531 57.0827 251.531 55.2481ZM285.486 54.9041C285.486 55.5921 285.443 56.3087 285.357 57.054H268.717C268.832 58.5446 269.305 59.6912 270.136 60.4938C270.996 61.2678 272.043 61.6548 273.275 61.6548C275.11 61.6548 276.385 60.8808 277.102 59.3329H284.928C284.526 60.9095 283.795 62.3284 282.735 63.5897C281.703 64.8509 280.398 65.8399 278.822 66.5565C277.245 67.2731 275.482 67.6315 273.533 67.6315C271.183 67.6315 269.09 67.1298 267.255 66.1265C265.421 65.1233 263.988 63.69 262.956 61.8268C261.924 59.9635 261.408 57.785 261.408 55.2911C261.408 52.7972 261.909 50.6187 262.913 48.7555C263.945 46.8922 265.378 45.459 267.212 44.4557C269.047 43.4524 271.154 42.9508 273.533 42.9508C275.855 42.9508 277.919 43.4381 279.725 44.4127C281.531 45.3873 282.935 46.7776 283.939 48.5835C284.971 50.3894 285.486 52.4963 285.486 54.9041ZM277.962 52.9692C277.962 51.708 277.532 50.7047 276.672 49.9594C275.812 49.2141 274.737 48.8415 273.447 48.8415C272.215 48.8415 271.168 49.1998 270.308 49.9164C269.477 50.633 268.961 51.6506 268.76 52.9692H277.962ZM296.718 47.2935C297.578 45.9749 298.653 44.943 299.943 44.1977C301.233 43.4237 302.666 43.0368 304.243 43.0368V50.8194H302.222C300.387 50.8194 299.011 51.2207 298.094 52.0233C297.177 52.7972 296.718 54.1732 296.718 56.1511V67.2875H289.365V43.2948H296.718V47.2935ZM173.822 95.1523C173.822 92.1711 174.467 89.5196 175.757 87.1977C177.047 84.8472 178.838 83.0269 181.131 81.737C183.453 80.4184 186.076 79.7591 189 79.7591C192.583 79.7591 195.65 80.705 198.201 82.5969C200.753 84.4888 202.458 87.0687 203.318 90.3365H195.235C194.633 89.0753 193.773 88.115 192.655 87.4557C191.565 86.7964 190.319 86.4667 188.914 86.4667C186.649 86.4667 184.815 87.255 183.41 88.8316C182.006 90.4082 181.303 92.5151 181.303 95.1523C181.303 97.7895 182.006 99.8964 183.41 101.473C184.815 103.05 186.649 103.838 188.914 103.838C190.319 103.838 191.565 103.508 192.655 102.849C193.773 102.19 194.633 101.229 195.235 99.968H203.318C202.458 103.236 200.753 105.816 198.201 107.708C195.65 109.571 192.583 110.502 189 110.502C186.076 110.502 183.453 109.857 181.131 108.568C178.838 107.249 177.047 105.429 175.757 103.107C174.467 100.785 173.822 98.1335 173.822 95.1523ZM222.569 86.0368C225.321 86.0368 227.528 86.9541 229.191 88.7886C230.853 90.5945 231.685 93.0884 231.685 96.2702V110.287H224.375V97.2592C224.375 95.6539 223.959 94.407 223.128 93.5184C222.297 92.6297 221.179 92.1854 219.774 92.1854C218.37 92.1854 217.252 92.6297 216.42 93.5184C215.589 94.407 215.173 95.6539 215.173 97.2592V110.287H207.821V78.4692H215.173V89.5196C215.919 88.459 216.936 87.6133 218.226 86.9827C219.516 86.3521 220.964 86.0368 222.569 86.0368ZM235.332 98.2481C235.332 95.7829 235.791 93.6187 236.708 91.7555C237.654 89.8922 238.929 88.459 240.535 87.4557C242.14 86.4524 243.932 85.9508 245.909 85.9508C247.601 85.9508 249.077 86.2948 250.338 86.9827C251.628 87.6707 252.617 88.5736 253.305 89.6916V86.2948H260.658V110.287H253.305V106.891C252.588 108.009 251.585 108.912 250.295 109.6C249.034 110.287 247.558 110.631 245.866 110.631C243.917 110.631 242.14 110.13 240.535 109.127C238.929 108.095 237.654 106.647 236.708 104.784C235.791 102.892 235.332 100.713 235.332 98.2481ZM253.305 98.2911C253.305 96.4565 252.789 95.009 251.757 93.9483C250.754 92.8877 249.521 92.3574 248.059 92.3574C246.597 92.3574 245.35 92.8877 244.319 93.9483C243.315 94.9803 242.814 96.4135 242.814 98.2481C242.814 100.083 243.315 101.545 244.319 102.634C245.35 103.694 246.597 104.225 248.059 104.225C249.521 104.225 250.754 103.694 251.757 102.634C252.789 101.573 253.305 100.126 253.305 98.2911ZM269.675 83.8009C268.385 83.8009 267.324 83.4282 266.493 82.6829C265.69 81.909 265.289 80.963 265.289 79.8451C265.289 78.6985 265.69 77.7525 266.493 77.0072C267.324 76.2333 268.385 75.8463 269.675 75.8463C270.936 75.8463 271.968 76.2333 272.771 77.0072C273.602 77.7525 274.018 78.6985 274.018 79.8451C274.018 80.963 273.602 81.909 272.771 82.6829C271.968 83.4282 270.936 83.8009 269.675 83.8009ZM273.33 86.2948V110.287H265.977V86.2948H273.33ZM293.277 86.0368C296.086 86.0368 298.322 86.9541 299.985 88.7886C301.676 90.5945 302.522 93.0884 302.522 96.2702V110.287H295.212V97.2592C295.212 95.6539 294.796 94.407 293.965 93.5184C293.134 92.6297 292.016 92.1854 290.611 92.1854C289.207 92.1854 288.089 92.6297 287.257 93.5184C286.426 94.407 286.011 95.6539 286.011 97.2592V110.287H278.658V86.2948H286.011V89.4766C286.756 88.416 287.759 87.5847 289.02 86.9827C290.282 86.3521 291.701 86.0368 293.277 86.0368Z" fill="white"/>
<rect x="6.71886" y="101.866" width="116.973" height="53.0245" rx="26.5122" transform="rotate(-51.9701 6.71886 101.866)" stroke="#7E56FF" stroke-width="17.6748"/>
<rect x="-12.4056" y="-1.51664" width="116.973" height="53.0245" rx="26.5122" transform="matrix(-0.616073 -0.787689 -0.787689 0.616073 151.16 93.0289)" stroke="url(#paint0_linear_1_27)" stroke-width="17.6748"/>
<path d="M65.3192 113.119L103.633 64.0554" stroke="url(#paint1_linear_1_27)" stroke-width="17.6748" stroke-linejoin="round"/>
</g>
<defs>
<linearGradient id="paint0_linear_1_27" x1="67.3239" y1="0" x2="67.3239" y2="70.6993" gradientUnits="userSpaceOnUse">
<stop stop-color="#73A6F2"/>
<stop offset="1" stop-color="#0B2685"/>
</linearGradient>
<linearGradient id="paint1_linear_1_27" x1="84.4761" y1="64.0554" x2="84.4761" y2="113.119" gradientUnits="userSpaceOnUse">
<stop stop-color="#7E55FF"/>
<stop offset="1" stop-color="#7E55FF"/>
</linearGradient>
<clipPath id="clip0_1_27">
<rect width="160" height="144" fill="white"/>
</clipPath>
</defs>
</svg>
