<?xml version="1.0" encoding="utf-8"?>
<svg viewBox="-35.82 5.226 151.389 120.283" fill="none" xmlns="http://www.w3.org/2000/svg">
  <defs>
    <clipPath id="clip0_0_3">
      <rect width="325" height="144" fill="white"/>
    </clipPath>
    <linearGradient id="paint0_linear_0_3" x1="67.3239" y1="0" x2="67.3239" y2="70.6993" gradientUnits="userSpaceOnUse">
      <stop stop-color="#73A6F2"/>
      <stop offset="1" stop-color="#0B2685"/>
    </linearGradient>
    <linearGradient id="paint1_linear_0_3" x1="84.4761" y1="64.0554" x2="84.4761" y2="113.119" gradientUnits="userSpaceOnUse">
      <stop stop-color="#7E55FF"/>
      <stop offset="1" stop-color="#7E55FF"/>
    </linearGradient>
  </defs>
  <g clip-path="url(#clip0_0_3)" transform="matrix(0.560872, 0, 0, 0.560872, -9.295654, 10.361509)">
    <rect x="6.71886" y="101.866" width="116.973" height="53.0245" rx="26.5122" transform="rotate(-51.9701 6.71886 101.866)" stroke="#7E56FF" stroke-width="17.6748"/>
    <rect x="-12.4056" y="-1.51664" width="116.973" height="53.0245" rx="26.5122" transform="matrix(-0.616073 -0.787689 -0.787689 0.616073 151.16 93.0289)" stroke="url(#paint0_linear_0_3)" stroke-width="17.6748"/>
    <path d="M65.3192 113.119L103.633 64.0554" stroke="url(#paint1_linear_0_3)" stroke-width="17.6748" stroke-linejoin="round"/>
  </g>
  <path d="M -12.32 93.715 L -12.32 108.441 L -15.907 108.441 L -15.907 102.379 L -21.488 102.379 L -21.488 108.441 L -25.075 108.441 L -25.075 93.715 L -21.488 93.715 L -21.488 99.483 L -15.907 99.483 L -15.907 93.715 L -12.32 93.715 Z M 2.228 96.736 L -5.115 114.001 L -8.975 114.001 L -6.289 108.043 L -11.052 96.736 L -7.045 96.736 L -4.339 104.057 L -1.654 96.736 L 2.228 96.736 Z M 7.112 98.393 C 7.462 97.848 7.945 97.407 8.559 97.072 C 9.174 96.736 9.896 96.568 10.72 96.568 C 11.686 96.568 12.56 96.812 13.343 97.302 C 14.126 97.792 14.741 98.491 15.189 99.4 C 15.65 100.31 15.881 101.365 15.881 102.567 C 15.881 103.771 15.65 104.833 15.189 105.757 C 14.741 106.666 14.126 107.372 13.343 107.875 C 12.56 108.365 11.686 108.609 10.72 108.609 C 9.909 108.609 9.189 108.441 8.559 108.106 C 7.945 107.77 7.462 107.337 7.112 106.806 L 7.112 114.022 L 3.525 114.022 L 3.525 96.736 L 7.112 96.736 L 7.112 98.393 Z M 12.231 102.567 C 12.231 101.672 11.979 100.973 11.476 100.47 C 10.986 99.952 10.378 99.693 9.65 99.693 C 8.937 99.693 8.328 99.952 7.825 100.47 C 7.336 100.987 7.091 101.693 7.091 102.589 C 7.091 103.484 7.336 104.19 7.825 104.707 C 8.328 105.225 8.937 105.484 9.65 105.484 C 10.364 105.484 10.973 105.225 11.476 104.707 C 11.979 104.176 12.231 103.463 12.231 102.567 Z M 28.798 102.4 C 28.798 102.736 28.777 103.085 28.735 103.449 L 20.616 103.449 C 20.672 104.176 20.903 104.735 21.308 105.128 C 21.728 105.505 22.239 105.694 22.84 105.694 C 23.735 105.694 24.358 105.316 24.707 104.561 L 28.525 104.561 C 28.329 105.33 27.972 106.022 27.456 106.638 C 26.952 107.253 26.315 107.735 25.546 108.085 C 24.777 108.434 23.917 108.609 22.965 108.609 C 21.819 108.609 20.798 108.365 19.903 107.875 C 19.008 107.385 18.309 106.686 17.805 105.777 C 17.301 104.868 17.05 103.806 17.05 102.589 C 17.05 101.372 17.294 100.31 17.784 99.4 C 18.287 98.491 18.987 97.792 19.882 97.302 C 20.777 96.812 21.805 96.568 22.965 96.568 C 24.099 96.568 25.106 96.806 25.987 97.281 C 26.868 97.756 27.553 98.435 28.043 99.316 C 28.546 100.197 28.798 101.225 28.798 102.4 Z M 25.127 101.456 C 25.127 100.841 24.916 100.351 24.497 99.987 C 24.077 99.624 23.554 99.442 22.924 99.442 C 22.323 99.442 21.812 99.617 21.392 99.966 C 20.987 100.316 20.735 100.813 20.637 101.456 L 25.127 101.456 Z M 34.277 98.687 C 34.697 98.044 35.222 97.54 35.851 97.177 C 36.481 96.799 37.18 96.61 37.949 96.61 L 37.949 100.407 L 36.963 100.407 C 36.068 100.407 35.396 100.603 34.949 100.994 C 34.502 101.372 34.277 102.043 34.277 103.008 L 34.277 108.441 L 30.69 108.441 L 30.69 96.736 L 34.277 96.736 L 34.277 98.687 Z M -5.508 113.897 L -9.095 113.897 L -5.508 113.897 Z" fill="black" style="stroke-miterlimit: 3; fill-rule: nonzero;"/>
  <path d="M 56.84 93.967 L 60.7 93.967 L 56.84 93.967 Z M 69.34 93.987 L 72.927 93.987 L 69.34 93.987 Z M 40.132 102.003 C 40.132 100.548 40.446 99.254 41.076 98.121 C 41.705 96.974 42.579 96.086 43.698 95.457 C 44.83 94.813 46.11 94.492 47.537 94.492 C 49.285 94.492 50.782 94.953 52.026 95.877 C 53.272 96.799 54.103 98.059 54.523 99.652 L 50.579 99.652 C 50.286 99.038 49.866 98.569 49.32 98.247 C 48.789 97.926 48.181 97.765 47.495 97.765 C 46.39 97.765 45.495 98.149 44.81 98.919 C 44.125 99.688 43.782 100.716 43.782 102.003 C 43.782 103.289 44.125 104.317 44.81 105.086 C 45.495 105.856 46.39 106.24 47.495 106.24 C 48.181 106.24 48.789 106.079 49.32 105.757 C 49.866 105.436 50.286 104.967 50.579 104.352 L 54.523 104.352 C 54.103 105.947 53.272 107.205 52.026 108.128 C 50.782 109.037 49.285 109.491 47.537 109.491 C 46.11 109.491 44.83 109.177 43.698 108.548 C 42.579 107.904 41.705 107.016 41.076 105.884 C 40.446 104.75 40.132 103.457 40.132 102.003 Z M 63.915 97.555 C 65.258 97.555 66.335 98.003 67.146 98.897 C 67.957 99.778 68.363 100.996 68.363 102.548 L 68.363 109.387 L 64.796 109.387 L 64.796 103.03 C 64.796 102.247 64.594 101.639 64.188 101.205 C 63.783 100.772 63.237 100.555 62.552 100.555 C 61.866 100.555 61.321 100.772 60.915 101.205 C 60.51 101.639 60.307 102.247 60.307 103.03 L 60.307 109.387 L 56.72 109.387 L 56.72 93.862 L 60.307 93.862 L 60.307 99.254 C 60.671 98.737 61.168 98.324 61.796 98.016 C 62.426 97.708 63.132 97.555 63.915 97.555 Z M 70.143 103.513 C 70.143 102.31 70.366 101.254 70.814 100.345 C 71.275 99.436 71.898 98.737 72.681 98.247 C 73.464 97.758 74.339 97.513 75.303 97.513 C 76.128 97.513 76.849 97.681 77.464 98.016 C 78.094 98.352 78.576 98.793 78.912 99.338 L 78.912 97.681 L 82.499 97.681 L 82.499 109.387 L 78.912 109.387 L 78.912 107.73 C 78.562 108.275 78.072 108.716 77.443 109.051 C 76.828 109.387 76.108 109.555 75.282 109.555 C 74.331 109.555 73.464 109.31 72.681 108.821 C 71.898 108.317 71.275 107.611 70.814 106.702 C 70.366 105.779 70.143 104.716 70.143 103.513 Z M 78.912 103.534 C 78.912 102.639 78.66 101.933 78.157 101.415 C 77.667 100.898 77.065 100.638 76.352 100.638 C 75.639 100.638 75.03 100.898 74.528 101.415 C 74.037 101.918 73.793 102.618 73.793 103.513 C 73.793 104.408 74.037 105.121 74.528 105.653 C 75.03 106.17 75.639 106.429 76.352 106.429 C 77.065 106.429 77.667 106.17 78.157 105.653 C 78.66 105.136 78.912 104.429 78.912 103.534 Z M 86.899 96.464 C 86.269 96.464 85.752 96.282 85.346 95.919 C 84.954 95.541 84.758 95.08 84.758 94.534 C 84.758 93.974 84.954 93.513 85.346 93.149 C 85.752 92.772 86.269 92.583 86.899 92.583 C 87.514 92.583 88.018 92.772 88.409 93.149 C 88.815 93.513 89.018 93.974 89.018 94.534 C 89.018 95.08 88.815 95.541 88.409 95.919 C 88.018 96.282 87.514 96.464 86.899 96.464 Z M 88.682 97.681 L 88.682 109.387 L 85.094 109.387 L 85.094 97.681 L 88.682 97.681 Z M 98.414 97.555 C 99.784 97.555 100.875 98.003 101.687 98.897 C 102.512 99.778 102.925 100.996 102.925 102.548 L 102.925 109.387 L 99.358 109.387 L 99.358 103.03 C 99.358 102.247 99.155 101.639 98.749 101.205 C 98.344 100.772 97.799 100.555 97.114 100.555 C 96.428 100.555 95.883 100.772 95.477 101.205 C 95.071 101.639 94.869 102.247 94.869 103.03 L 94.869 109.387 L 91.281 109.387 L 91.281 97.681 L 94.869 97.681 L 94.869 99.233 C 95.233 98.716 95.722 98.311 96.338 98.016 C 96.953 97.708 97.645 97.555 98.414 97.555 Z" fill="black" style="stroke-miterlimit: 3; fill-rule: nonzero;"/>
</svg>